<?xml version="1.0" standalone="no"?>
<!DOCTYPE svg PUBLIC "-//W3C//DTD SVG 20010904//EN"
 "http://www.w3.org/TR/2001/REC-SVG-20010904/DTD/svg10.dtd">
<svg version="1.0" xmlns="http://www.w3.org/2000/svg"
 width="1500.000000pt" height="1183.000000pt" viewBox="0 0 1500.000000 1183.000000"
 preserveAspectRatio="xMidYMid meet">
<metadata>
Created by potrace 1.16, written by Peter Selinger 2001-2019
</metadata>
<g transform="translate(0.000000,1183.000000) scale(0.100000,-0.100000)"
fill="rgb(65,114,199)" stroke="none">

		<g>
		<path d="M2785 11220 c-735 -51 -1258 -218 -1613 -514 -91 -75 -212 -217 -274
		-323 -124 -209 -225 -559 -275 -948 -24 -195 -24 -628 0 -805 85 -611 333
		-1049 719 -1269 127 -72 232 -116 441 -186 644 -214 1752 -404 2890 -495 1165
		-93 2162 -75 2777 50 381 78 682 239 973 520 234 226 398 453 552 765 134 271
		214 518 262 802 25 151 25 472 0 597 -51 254 -147 442 -293 575 -198 181 -615
		375 -1154 538 -999 301 -2583 570 -3990 678 -243 19 -831 27 -1015 15z m2102
		-470 c407 -70 724 -206 772 -333 18 -46 13 -176 -9 -263 -42 -165 -168 -368
		-273 -441 -86 -58 -159 -75 -354 -81 -256 -7 -461 26 -600 97 -72 36 -105 70
		-138 143 -46 100 -57 183 -52 373 7 240 39 352 126 433 33 30 109 70 158 81
		69 16 246 12 370 -9z m-2447 -1135 c369 -45 848 -156 1155 -267 155 -56 359
		-158 430 -215 70 -57 119 -125 140 -196 20 -67 19 -236 -1 -335 -50 -245 -202
		-551 -370 -742 -226 -257 -421 -328 -937 -337 -482 -10 -887 54 -1165 182
		-173 80 -264 194 -326 409 -46 158 -59 287 -53 531 12 514 118 761 382 892
		136 68 251 91 465 92 86 1 212 -6 280 -14z m4312 -601 c477 -66 995 -233 1205
		-388 116 -85 153 -164 153 -322 0 -215 -90 -477 -242 -705 -197 -296 -387
		-379 -868 -379 -354 0 -667 58 -874 162 -206 103 -296 334 -296 753 0 270 37
		484 106 616 69 130 205 227 369 262 94 20 307 21 447 1z"/>
		<g>
		<path d="M4566 10485 c-60 -21 -88 -46 -116 -101 -21 -41 -25 -67 -28 -154 -9
		-245 56 -303 368 -331 131 -11 270 4 337 37 144 70 257 320 182 400 -98 105
		-591 203 -743 149z"/>
		</g>
		</g>
		<g>
		<path d="M11555 9125 c-201 -33 -341 -101 -465 -225 -171 -170 -244 -393 -280
		-854 -42 -544 51 -1035 237 -1245 195 -222 780 -381 1395 -381 374 0 679 62
		846 171 234 153 477 520 611 924 118 355 132 646 41 832 -95 192 -426 386
		-943 551 -568 183 -1152 274 -1442 227z m887 -749 c357 -61 676 -171 790 -274
		59 -53 78 -100 78 -198 0 -147 -62 -322 -171 -479 -138 -200 -268 -255 -608
		-255 -330 0 -606 66 -710 171 -45 44 -86 135 -105 231 -32 158 -15 461 35 592
		39 105 136 187 262 221 84 22 264 19 429 -9z"/>
		</g>
		<g>
		<path d="M2230 4713 c-225 -38 -386 -145 -469 -315 -65 -131 -91 -272 -98
		-533 -8 -295 16 -454 93 -614 68 -139 173 -219 379 -285 393 -126 1030 -147
		1355 -45 113 36 179 78 281 179 290 288 472 786 378 1035 -39 106 -154 197
		-359 286 -265 114 -733 234 -1115 284 -106 14 -381 19 -445 8z"/>
		</g>
		<g>
		<path d="M6398 4284 c-138 -33 -249 -118 -307 -235 -59 -119 -75 -230 -76
		-504 0 -216 2 -249 22 -328 51 -200 120 -285 285 -352 196 -80 535 -125 792
		-105 271 21 389 67 507 199 232 259 367 700 270 888 -72 142 -350 274 -802
		383 -286 68 -550 89 -691 54z m526 -380 c274 -43 482 -113 536 -181 19 -25 22
		-37 18 -103 -6 -105 -49 -192 -143 -286 -94 -96 -125 -106 -348 -112 -265 -7
		-444 31 -519 110 -56 57 -71 122 -66 273 3 110 6 127 33 180 34 67 60 90 136
		116 69 24 214 25 353 3z"/>
		</g>
		<g>
		<path d="M11063 3449 c-118 -37 -195 -121 -228 -245 -23 -88 -32 -345 -16
		-439 35 -201 106 -275 314 -330 133 -35 242 -47 412 -47 261 0 367 34 478 151
		167 177 265 471 203 604 -46 95 -220 182 -518 257 -283 72 -518 90 -645 49z"/>
		</g>
		<g>
	<path d="M4933 2089 c-118 -37 -195 -121 -228 -245 -23 -88 -32 -345 -16 -439
	35 -201 106 -275 314 -330 133 -35 242 -47 412 -47 261 0 367 34 478 151 167
	177 265 471 203 604 -46 95 -220 182 -518 257 -283 72 -518 90 -645 49z"/>
	</g>
	</g>
<g transform="translate(0.000000,1183.000000) scale(0.100000,-0.100000)"
fill="rgb(255,255,0)" stroke="none">
	<g>
	<path d="M4489 10737 c-118 -40 -182 -111 -222 -246 -28 -95 -35 -385 -13
	-491 23 -109 68 -194 124 -234 184 -134 726 -175 945 -71 92 43 188 160 261
	316 56 122 79 206 79 299 0 123 -42 180 -183 254 -127 67 -395 146 -610 181
	-144 23 -300 20 -381 -8z m386 -243 c224 -38 414 -106 450 -160 13 -20 16 -42
	13 -94 -7 -123 -107 -273 -215 -323 -44 -20 -63 -22 -243 -22 -175 0 -204 3
	-279 24 -157 45 -197 111 -189 316 6 161 41 223 147 261 50 18 208 17 316 -2z"/>
	</g>
	<g>
	<path d="M1920 9601 c-245 -54 -404 -168 -491 -349 -69 -143 -109 -387 -109
	-660 0 -205 11 -309 46 -442 55 -211 148 -343 294 -419 419 -218 1393 -276
	1809 -107 316 128 652 645 700 1076 16 144 -6 255 -67 344 -135 196 -756 419
	-1510 542 -217 36 -545 43 -672 15z"/>
	</g>
	<g>
	<path d="M6310 9004 c-96 -20 -217 -84 -278 -145 -131 -131 -179 -300 -189
	-657 -12 -464 70 -699 284 -810 207 -107 515 -165 873 -164 296 0 494 40 623
	126 244 162 480 630 479 951 0 154 -35 228 -146 312 -201 152 -722 321 -1196
	388 -130 18 -363 18 -450 -1z"/>
	</g>
	<g>
	<path d="M12018 8375 c-155 -42 -239 -130 -283 -295 -26 -99 -33 -391 -11
	-501 32 -158 91 -247 200 -298 252 -120 792 -141 1004 -40 162 78 338 364 371
	603 17 119 -8 198 -80 260 -198 169 -953 340 -1201 271z"/>
	</g>
	<g>
	<path d="M2805 5450 c-493 -34 -885 -124 -1202 -275 -409 -195 -654 -453 -797
	-836 -157 -422 -235 -1034 -196 -1535 47 -605 219 -1055 519 -1355 122 -122
	186 -167 349 -249 669 -334 2216 -559 3687 -537 815 13 1393 79 1847 212 493
	145 1016 527 1431 1045 348 433 585 898 674 1320 23 108 27 149 27 300 0 202
	-15 277 -84 416 -111 227 -403 421 -935 622 -982 370 -2797 727 -4355 857
	-221 19 -783 27 -965 15z m-140 -735 c273 -36 607 -110 863 -191 372 -117 579
	-244 631 -387 26 -72 29 -221 5 -333 -49 -241 -204 -533 -374 -705 -128 -130
	-236 -185 -443 -225 -130 -25 -555 -30 -737 -10 -274 32 -484 83 -637 158
	-223 108 -323 345 -323 768 0 260 35 481 99 615 72 155 223 264 421 306 109
	23 336 25 495 4z m4246 -439 c462 -88 852 -241 959 -376 51 -65 63 -115 57
	-248 -7 -185 -79 -390 -198 -571 -116 -176 -226 -260 -395 -303 -81 -21 -112
	-23 -344 -23 -218 0 -272 3 -375 22 -143 26 -266 63 -355 108 -177 89 -247
	251 -257 591 -10 327 35 550 134 668 60 72 167 132 278 156 78 17 350 4 496
	-24z m-1611 -2170 c327 -50 648 -159 754 -256 59 -54 70 -90 63 -204 -10 -177
	-112 -388 -246 -508 -98 -88 -169 -108 -407 -115 -304 -9 -547 39 -669 133
	-44 33 -90 127 -111 224 -21 100 -15 365 11 462 36 138 121 229 245 262 71 19
	240 20 360 2z"/>
	<g>
	<path d="M6577 3894 c-30 -9 -65 -31 -91 -57 -56 -56 -76 -127 -76 -265 0
	-152 33 -233 112 -273 149 -76 534 -98 692 -39 160 60 313 346 243 454 -57 86
	-410 185 -692 192 -107 3 -151 0 -188 -12z"/>
	</g>
	</g>
	<g>
	<path d="M10823 3909 c-239 -31 -424 -142 -511 -306 -90 -170 -135 -556 -97
	-833 39 -289 136 -456 315 -542 335 -161 1050 -227 1494 -137 187 38 293 97
	433 242 284 294 453 773 354 1004 -75 174 -413 331 -1001 467 -410 94 -774
	133 -987 105z m607 -443 c327 -50 648 -159 754 -256 59 -54 70 -90 63 -204
	-10 -177 -112 -388 -246 -508 -98 -88 -169 -108 -407 -115 -304 -9 -547 39
	-669 133 -44 33 -90 127 -111 224 -21 100 -15 365 11 462 36 138 121 229 245
	262 71 19 240 20 360 2z"/>
</g>
</g>

</svg>
