<?xml version="1.0" standalone="no"?>
<!DOCTYPE svg PUBLIC "-//W3C//DTD SVG 20010904//EN"
 "http://www.w3.org/TR/2001/REC-SVG-20010904/DTD/svg10.dtd">
<svg version="1.0" xmlns="http://www.w3.org/2000/svg"
 width="1500.000000pt" height="1183.000000pt" viewBox="0 0 1500.000000 1183.000000"
 preserveAspectRatio="xMidYMid meet">
<metadata>
Created by potrace 1.16, written by Peter Selinger 2001-2019
</metadata>
<g transform="translate(0.000000,1183.000000) scale(0.100000,-0.100000)"
fill="rgb(65,114,199)" stroke="none">
<g>
<path d="M2785 11220 c-735 -51 -1258 -218 -1613 -514 -91 -75 -212 -217 -274
-323 -124 -209 -225 -559 -275 -948 -24 -195 -24 -628 0 -805 85 -611 333
-1049 719 -1269 127 -72 232 -116 441 -186 644 -214 1752 -404 2890 -495 1165
-93 2162 -75 2777 50 381 78 682 239 973 520 234 226 398 453 552 765 134 271
214 518 262 802 25 151 25 472 0 597 -51 254 -147 442 -293 575 -198 181 -615
375 -1154 538 -999 301 -2583 570 -3990 678 -243 19 -831 27 -1015 15z m2102
-470 c407 -70 724 -206 772 -333 18 -46 13 -176 -9 -263 -42 -165 -168 -368
-273 -441 -86 -58 -159 -75 -354 -81 -256 -7 -461 26 -600 97 -72 36 -105 70
-138 143 -46 100 -57 183 -52 373 7 240 39 352 126 433 33 30 109 70 158 81
69 16 246 12 370 -9z m-2447 -1135 c369 -45 848 -156 1155 -267 155 -56 359
-158 430 -215 70 -57 119 -125 140 -196 20 -67 19 -236 -1 -335 -50 -245 -202
-551 -370 -742 -226 -257 -421 -328 -937 -337 -482 -10 -887 54 -1165 182
-173 80 -264 194 -326 409 -46 158 -59 287 -53 531 12 514 118 761 382 892
136 68 251 91 465 92 86 1 212 -6 280 -14z m4312 -601 c477 -66 995 -233 1205
-388 116 -85 153 -164 153 -322 0 -215 -90 -477 -242 -705 -197 -296 -387
-379 -868 -379 -354 0 -667 58 -874 162 -206 103 -296 334 -296 753 0 270 37
484 106 616 69 130 205 227 369 262 94 20 307 21 447 1z"/>
<g>
<path d="M4566 10485 c-60 -21 -88 -46 -116 -101 -21 -41 -25 -67 -28 -154 -9
-245 56 -303 368 -331 131 -11 270 4 337 37 144 70 257 320 182 400 -98 105
-591 203 -743 149z"/>
</g>
</g>
<g>
<path d="M11555 9125 c-201 -33 -341 -101 -465 -225 -171 -170 -244 -393 -280
-854 -42 -544 51 -1035 237 -1245 195 -222 780 -381 1395 -381 374 0 679 62
846 171 234 153 477 520 611 924 118 355 132 646 41 832 -95 192 -426 386
-943 551 -568 183 -1152 274 -1442 227z m887 -749 c357 -61 676 -171 790 -274
59 -53 78 -100 78 -198 0 -147 -62 -322 -171 -479 -138 -200 -268 -255 -608
-255 -330 0 -606 66 -710 171 -45 44 -86 135 -105 231 -32 158 -15 461 35 592
39 105 136 187 262 221 84 22 264 19 429 -9z"/>
</g>
<g>
<path d="M2230 4713 c-225 -38 -386 -145 -469 -315 -65 -131 -91 -272 -98
-533 -8 -295 16 -454 93 -614 68 -139 173 -219 379 -285 393 -126 1030 -147
1355 -45 113 36 179 78 281 179 290 288 472 786 378 1035 -39 106 -154 197
-359 286 -265 114 -733 234 -1115 284 -106 14 -381 19 -445 8z"/>
</g>
<g>
<path d="M6398 4284 c-138 -33 -249 -118 -307 -235 -59 -119 -75 -230 -76
-504 0 -216 2 -249 22 -328 51 -200 120 -285 285 -352 196 -80 535 -125 792
-105 271 21 389 67 507 199 232 259 367 700 270 888 -72 142 -350 274 -802
383 -286 68 -550 89 -691 54z m526 -380 c274 -43 482 -113 536 -181 19 -25 22
-37 18 -103 -6 -105 -49 -192 -143 -286 -94 -96 -125 -106 -348 -112 -265 -7
-444 31 -519 110 -56 57 -71 122 -66 273 3 110 6 127 33 180 34 67 60 90 136
116 69 24 214 25 353 3z"/>
</g>
<g>
<path d="M11063 3449 c-118 -37 -195 -121 -228 -245 -23 -88 -32 -345 -16
-439 35 -201 106 -275 314 -330 133 -35 242 -47 412 -47 261 0 367 34 478 151
167 177 265 471 203 604 -46 95 -220 182 -518 257 -283 72 -518 90 -645 49z"/>
</g>
<g>
<path d="M4933 2089 c-118 -37 -195 -121 -228 -245 -23 -88 -32 -345 -16 -439
35 -201 106 -275 314 -330 133 -35 242 -47 412 -47 261 0 367 34 478 151 167
177 265 471 203 604 -46 95 -220 182 -518 257 -283 72 -518 90 -645 49z"/>
</g>
</g>
</svg>
