<?xml version="1.0" standalone="no"?>
<!DOCTYPE svg PUBLIC "-//W3C//DTD SVG 20010904//EN"
 "http://www.w3.org/TR/2001/REC-SVG-20010904/DTD/svg10.dtd">
<svg version="1.0" xmlns="http://www.w3.org/2000/svg"
 width="1500.000000pt" height="1183.000000pt" viewBox="0 0 1500.000000 1183.000000"
 preserveAspectRatio="xMidYMid meet">
<metadata>
Created by potrace 1.16, written by Peter Selinger 2001-2019
</metadata>
<g transform="translate(0.000000,1183.000000) scale(0.100000,-0.100000)"
fill="rgb(255,255,0)" stroke="none">
<g>
<path d="M4489 10737 c-118 -40 -182 -111 -222 -246 -28 -95 -35 -385 -13
-491 23 -109 68 -194 124 -234 184 -134 726 -175 945 -71 92 43 188 160 261
316 56 122 79 206 79 299 0 123 -42 180 -183 254 -127 67 -395 146 -610 181
-144 23 -300 20 -381 -8z m386 -243 c224 -38 414 -106 450 -160 13 -20 16 -42
13 -94 -7 -123 -107 -273 -215 -323 -44 -20 -63 -22 -243 -22 -175 0 -204 3
-279 24 -157 45 -197 111 -189 316 6 161 41 223 147 261 50 18 208 17 316 -2z"/>
</g>
<g>
<path d="M1920 9601 c-245 -54 -404 -168 -491 -349 -69 -143 -109 -387 -109
-660 0 -205 11 -309 46 -442 55 -211 148 -343 294 -419 419 -218 1393 -276
1809 -107 316 128 652 645 700 1076 16 144 -6 255 -67 344 -135 196 -756 419
-1510 542 -217 36 -545 43 -672 15z"/>
</g>
<g>
<path d="M6310 9004 c-96 -20 -217 -84 -278 -145 -131 -131 -179 -300 -189
-657 -12 -464 70 -699 284 -810 207 -107 515 -165 873 -164 296 0 494 40 623
126 244 162 480 630 479 951 0 154 -35 228 -146 312 -201 152 -722 321 -1196
388 -130 18 -363 18 -450 -1z"/>
</g>
<g>
<path d="M12018 8375 c-155 -42 -239 -130 -283 -295 -26 -99 -33 -391 -11
-501 32 -158 91 -247 200 -298 252 -120 792 -141 1004 -40 162 78 338 364 371
603 17 119 -8 198 -80 260 -198 169 -953 340 -1201 271z"/>
</g>
<g>
<path d="M2805 5450 c-493 -34 -885 -124 -1202 -275 -409 -195 -654 -453 -797
-836 -157 -422 -235 -1034 -196 -1535 47 -605 219 -1055 519 -1355 122 -122
186 -167 349 -249 669 -334 2216 -559 3687 -537 815 13 1393 79 1847 212 493
145 1016 527 1431 1045 348 433 585 898 674 1320 23 108 27 149 27 300 0 202
-15 277 -84 416 -111 227 -403 421 -935 622 -982 370 -2797 727 -4355 857
-221 19 -783 27 -965 15z m-140 -735 c273 -36 607 -110 863 -191 372 -117 579
-244 631 -387 26 -72 29 -221 5 -333 -49 -241 -204 -533 -374 -705 -128 -130
-236 -185 -443 -225 -130 -25 -555 -30 -737 -10 -274 32 -484 83 -637 158
-223 108 -323 345 -323 768 0 260 35 481 99 615 72 155 223 264 421 306 109
23 336 25 495 4z m4246 -439 c462 -88 852 -241 959 -376 51 -65 63 -115 57
-248 -7 -185 -79 -390 -198 -571 -116 -176 -226 -260 -395 -303 -81 -21 -112
-23 -344 -23 -218 0 -272 3 -375 22 -143 26 -266 63 -355 108 -177 89 -247
251 -257 591 -10 327 35 550 134 668 60 72 167 132 278 156 78 17 350 4 496
-24z m-1611 -2170 c327 -50 648 -159 754 -256 59 -54 70 -90 63 -204 -10 -177
-112 -388 -246 -508 -98 -88 -169 -108 -407 -115 -304 -9 -547 39 -669 133
-44 33 -90 127 -111 224 -21 100 -15 365 11 462 36 138 121 229 245 262 71 19
240 20 360 2z"/>
<g>
<path d="M6577 3894 c-30 -9 -65 -31 -91 -57 -56 -56 -76 -127 -76 -265 0
-152 33 -233 112 -273 149 -76 534 -98 692 -39 160 60 313 346 243 454 -57 86
-410 185 -692 192 -107 3 -151 0 -188 -12z"/>
</g>
</g>
<g>
<path d="M10823 3909 c-239 -31 -424 -142 -511 -306 -90 -170 -135 -556 -97
-833 39 -289 136 -456 315 -542 335 -161 1050 -227 1494 -137 187 38 293 97
433 242 284 294 453 773 354 1004 -75 174 -413 331 -1001 467 -410 94 -774
133 -987 105z m607 -443 c327 -50 648 -159 754 -256 59 -54 70 -90 63 -204
-10 -177 -112 -388 -246 -508 -98 -88 -169 -108 -407 -115 -304 -9 -547 39
-669 133 -44 33 -90 127 -111 224 -21 100 -15 365 11 462 36 138 121 229 245
262 71 19 240 20 360 2z"/>
</g>
</g>
</svg>
